<svg version="1.0" xmlns="http://www.w3.org/2000/svg" width="880.000000pt" height="271.000000pt" viewBox="0 0 880.000000 271.000000" preserveAspectRatio="xMidYMid meet">

<g transform="translate(0.000000,271.000000) scale(0.100000,-0.100000)" fill="#ffffff" stroke="none">
<path d="M1340 2280 c-41 -11 -113 -39 -160 -62 -69 -33 -101 -58 -175 -132 -132 -133 -190 -247 -216 -420 l-11 -76 -184 0 -184 0 0 -220 0 -220 185 0 185 0 0 -470 0 -470 220 0 219 0 3 713 3 712 28 57 c16 32 48 75 73 97 75 66 103 71 386 71 l248 0 0 220 0 220 -272 -1 c-236 0 -283 -3 -348 -19z" fill="#ffffff"/>
<path d="M7570 1949 c0 -277 -3 -350 -12 -346 -171 75 -246 91 -392 85 -187 -9 -334 -71 -472 -201 -279 -262 -312 -678 -79 -985 153 -202 416 -313 668 -282 185 22 317 88 453 224 151 153 197 277 142 392 -50 107 -192 153 -301 98 -49 -25 -65 -43 -109 -117 -63 -108 -147 -159 -263 -161 -120 -1 -224 64 -277 173 -32 65 -32 188 0 248 36 68 83 114 147 145 50 23 73 28 136 28 95 0 137 -15 233 -80 89 -61 162 -88 264 -100 133 -15 225 29 276 132 l26 52 0 523 0 523 -220 0 -220 0 0 -351z" fill="#ffffff"/>
<path d="M2320 1674 c-96 -25 -161 -64 -235 -138 -39 -39 -82 -93 -97 -121 -14 -27 -70 -201 -123 -385 -62 -214 -104 -342 -116 -355 -15 -16 -36 -21 -99 -23 l-80 -4 0 -221 0 -220 108 6 c64 3 133 14 173 26 131 41 251 145 308 265 16 33 70 205 121 381 74 258 97 324 117 343 38 34 99 26 123 -17 5 -10 53 -167 106 -347 52 -181 108 -351 122 -378 167 -308 594 -363 835 -107 34 37 74 91 88 121 15 30 70 204 123 385 72 248 101 334 117 348 42 34 117 12 133 -40 3 -10 46 -160 96 -333 54 -186 105 -339 123 -374 91 -172 282 -276 508 -276 l66 0 8 91 c3 50 3 149 0 220 l-8 129 -63 0 c-71 0 -107 13 -123 44 -6 11 -49 154 -96 316 -104 360 -107 369 -162 452 -177 270 -568 307 -798 74 -33 -33 -74 -88 -92 -121 -17 -34 -70 -196 -123 -380 -51 -176 -99 -330 -106 -342 -31 -49 -100 -54 -130 -8 -8 13 -57 168 -108 344 -52 177 -106 347 -122 379 -36 74 -151 190 -224 225 -117 56 -255 72 -370 41z" fill="#ffffff"/>
<path d="M5444 1675 c-238 -54 -440 -224 -530 -445 -111 -273 -48 -581 161 -795 295 -301 788 -292 1074 20 119 131 181 283 189 465 4 96 1 130 -17 200 -64 257 -247 455 -496 536 -99 33 -283 42 -381 19z m256 -441 c78 -23 162 -109 186 -189 58 -200 -78 -388 -281 -389 -120 0 -224 64 -277 173 -32 65 -32 188 0 248 76 144 216 203 372 157z" fill="#ffffff"/>
<path d="M1485 1597 c-149 -68 -183 -271 -64 -384 90 -85 228 -85 318 0 105 100 92 278 -27 362 -38 26 -53 30 -120 33 -49 1 -88 -3 -107 -11z" fill="#ffffff"/>
<path d="M8080 644 c-40 -17 -96 -68 -115 -104 -55 -108 1 -259 114 -308 91 -38 216 -6 271 70 85 117 47 273 -82 339 -45 23 -138 25 -188 3z m197 -51 c21 -16 46 -44 57 -62 23 -40 25 -134 3 -176 -93 -179 -350 -117 -350 84 0 62 16 102 60 143 40 38 70 48 135 45 47 -3 65 -9 95 -34z" fill="#ffffff"/>
<path d="M8080 446 c0 -129 1 -136 20 -136 18 0 20 7 20 60 0 53 2 60 20 60 14 0 32 -19 57 -60 23 -36 45 -60 55 -60 24 0 23 5 -13 63 -22 35 -28 52 -19 55 27 9 50 43 50 75 0 53 -28 71 -116 75 l-74 4 0 -136z m144 72 c19 -30 -4 -53 -58 -56 l-46 -3 0 41 0 41 46 -3 c31 -2 51 -9 58 -20z" fill="#ffffff"/>
</g>
</svg>